# xmcd
#
# Track frame offsets: 
#        150
#        16876
#        41252
#        63903
#        87004
#        104705
#        128706
#        150832
#        167858
#        188709
#
# Disc length: 2775 seconds
#
# Revision: 2
# Processed by: cddbd v1.5.2PL0 Copyright (c) Steve Scherf et al.
# Submitted via: ExactAudioCopyFreeDBPlugin 1.0
#
DISCID=6f0ad50a
DTITLE=Tadeusz Nalepa - Sumienie
DYEAR=2002
DGENRE=Blues
TTITLE0=Ćma
TTITLE1=Świat  nieprzenikniony
TTITLE2=Coś ważnego na dobranoc
TTITLE3=Własne miejsce
TTITLE4=Sumienie sprzedam
TTITLE5=Mój Nowy Jork
TTITLE6=Wiara nosi góry
TTITLE7=To niemożliwe
TTITLE8=Tego Ci życzę
TTITLE9=Tydzień ma 7 dni
EXTD=
EXTT0=
EXTT1=
EXTT2=
EXTT3=
EXTT4=
EXTT5=
EXTT6=
EXTT7=
EXTT8=
EXTT9=
PLAYORDER=
